<svg width="146" height="22" viewBox="0 0 146 22" fill="none" xmlns="http://www.w3.org/2000/svg">
<path d="M18.6925 6.35869C21.0847 6.35869 23.2824 7.57482 24.3393 9.31579V4.16083C24.3393 2.75678 25.4851 1.61849 26.8984 1.61849V21.7515C25.4851 21.7515 24.3393 20.6133 24.3393 19.2092V18.9051C23.4213 20.5906 21.4463 21.9999 18.6645 21.9999C14.5754 21.9999 11.4322 18.8223 11.4322 14.1242C11.4322 9.39857 14.5755 6.35869 18.6925 6.35869ZM19.1653 8.54203C16.3838 8.54203 14.0191 10.5592 14.0191 14.1242C14.0191 17.689 16.3837 19.7892 19.1653 19.7892C21.9472 19.7892 24.3393 17.7166 24.3393 14.1518C24.3393 10.642 21.9472 8.54203 19.1653 8.54203ZM66.5861 6.35869C69.4237 6.35869 71.3706 7.79585 72.2609 9.37098V9.14965C72.2609 7.7456 73.4067 6.60732 74.82 6.60732V21.7515C73.4067 21.7515 72.2609 20.6133 72.2609 19.2092V18.9327C71.3428 20.5633 69.3679 21.9999 66.5583 21.9999C62.497 21.9999 59.3538 18.8223 59.3538 14.1242C59.3538 9.39857 62.497 6.35869 66.5861 6.35869ZM67.0869 8.54203C64.3053 8.54203 61.9406 10.5592 61.9406 14.1242C61.9406 17.689 64.3053 19.7892 67.0869 19.7892C69.8687 19.7892 72.2609 17.7166 72.2609 14.1518C72.2609 10.642 69.8687 8.54203 67.0869 8.54203ZM84.1934 6.35881C79.8541 6.35881 76.7664 9.39869 76.7664 14.152C76.7664 18.9601 79.8541 22 84.1934 22C87.9763 22 90.4521 19.8997 91.2312 16.8877H88.5052C87.9486 18.7946 86.4466 19.8721 84.1934 19.8721C81.4118 19.8721 79.3533 17.9101 79.3533 14.152C79.3533 10.4487 81.4118 8.48667 84.1934 8.48667C86.4466 8.48667 87.9763 9.64761 88.5052 11.4714H91.2312C90.4521 8.29352 87.9763 6.35881 84.1934 6.35881ZM95.7369 1.30155C94.3387 1.30155 93.2052 2.42764 93.2052 3.81658V21.7515H95.7369V13.3783C95.7369 10.1171 97.5171 8.51437 100.104 8.51437C102.663 8.51437 104.36 10.0895 104.36 13.1849V21.7515H106.863V12.8253C106.863 8.48649 104.165 6.33133 100.772 6.33133C98.6298 6.33133 96.7382 7.18787 95.7369 8.7906V1.30155H95.7369ZM112.148 6.6074C110.75 6.6074 109.617 7.73349 109.617 9.12244V21.7513H112.148V6.6074ZM126.223 21.7514H128.727V12.8255C128.727 8.48667 126.028 6.33121 122.495 6.33121C120.437 6.33121 118.601 7.18805 117.6 8.76289V6.60743C116.202 6.60743 115.068 7.73352 115.068 9.12247V21.7514H117.6V13.3782C117.6 10.117 119.38 8.51426 121.967 8.51426C124.526 8.51426 126.223 10.0897 126.223 13.1847V21.7514ZM137.766 6.35869C140.604 6.35869 142.551 7.79585 143.441 9.37098V9.14965C143.441 7.7456 144.587 6.60732 146 6.60732V21.7515C144.587 21.7515 143.441 20.6133 143.441 19.2092V18.9327C142.523 20.5633 140.548 21.9999 137.738 21.9999C133.677 21.9999 130.534 18.8223 130.534 14.1242C130.534 9.39857 133.677 6.35869 137.766 6.35869ZM138.267 8.54203C135.485 8.54203 133.121 10.5592 133.121 14.1242C133.121 17.689 135.485 19.7892 138.267 19.7892C141.049 19.7892 143.441 17.7166 143.441 14.1518C143.441 10.642 141.049 8.54203 138.267 8.54203ZM38.45 1.61852C37.0519 1.61852 35.9184 2.74461 35.9184 4.13356V21.8797H38.45V1.61852ZM47.0123 21.8797H49.5437L44.8889 4.0531C44.5152 2.61971 43.213 1.61852 41.7226 1.61852L47.0123 21.8797ZM55.7095 21.8797H58.2408L53.5861 4.0531C53.2124 2.61971 51.9102 1.61852 50.4198 1.61852L55.7095 21.8797ZM10.4313 2.55956H0V21.8486H10.4313V19.7759H2.5313V13.1434H9.59693V11.0707H2.5313V4.63224H10.4313V2.55956ZM109.198 1.67359C109.198 2.59781 109.952 3.34718 110.882 3.34718C111.813 3.34718 112.567 2.59781 112.567 1.67359C112.567 0.749079 111.813 0 110.882 0C109.952 0 109.198 0.749079 109.198 1.67359Z" fill="white"/>
</svg>